<svg xmlns="http://www.w3.org/2000/svg" viewBox="0 0 16 16"><path d="M11.757 2.987A4.356 4.356 0 0 0 7.618 0a4.362 4.362 0 0 0-4.139 2.987 5.474 5.474 0 0 0-.22 1.894 5.604 5.604 0 0 0 1.4 3.312l.125.152a.748.748 0 0 1-.2 1.128l-2.209 1.275A4.748 4.748 0 0 0 0 14.857v1.142h8.734A5.48 5.48 0 0 1 8.15 14.5H1.517a3.245 3.245 0 0 1 1.6-2.454l2.21-1.275a2.25 2.25 0 0 0 .6-3.386l-.128-.153a4.112 4.112 0 0 1-1.05-2.44A4.053 4.053 0 0 1 4.89 3.47a2.797 2.797 0 0 1 1.555-1.713 2.89 2.89 0 0 1 3.293.691c.265.296.466.644.589 1.022.12.43.169.876.144 1.322a4.12 4.12 0 0 1-1.052 2.44l-.127.153a2.239 2.239 0 0 0-.2 2.58c.338-.45.742-.845 1.2-1.173 0-.162.055-.32.156-.447l.126-.152a5.598 5.598 0 0 0 1.4-3.312 5.499 5.499 0 0 0-.218-1.894zm3.493 3.771a.75.75 0 0 0-.75.75v3.496h-1a2.502 2.502 0 0 0-2.31 1.542 2.497 2.497 0 0 0 1.822 3.406A2.502 2.502 0 0 0 16 13.502V7.508a.75.75 0 0 0-.75-.75zm-.75 6.744a.998.998 0 0 1-1.707.707 1 1 0 0 1 .707-1.706h1v1z"></path></svg>