<svg xmlns="http://www.w3.org/2000/svg" viewBox="0 0 16 16"><path d="M4.765 1.423c-.42.459-.713.992-.903 1.554-.144.421-.264 1.173-.22 1.894.077 1.321.638 2.408 1.399 3.316v.002l.083.098c.611.293 1.16.696 1.621 1.183a2.244 2.244 0 0 0-.426-2.092l-.127-.153-.002-.001c-.612-.73-.997-1.52-1.051-2.442-.032-.54.066-1.097.143-1.323a2.85 2.85 0 0 1 .589-1.022 2.888 2.888 0 0 1 4.258 0c.261.284.456.628.59 1.022.076.226.175.783.143 1.323-.055.921-.44 1.712-1.052 2.442l-.002.001-.127.153a2.25 2.25 0 0 0 .603 3.39l2.209 1.275a3.248 3.248 0 0 1 1.605 2.457h-5.99a5.466 5.466 0 0 1-.594 1.5h8.259l-.184-1.665a4.75 4.75 0 0 0-2.346-3.591l-2.209-1.275a.75.75 0 0 1-.201-1.13l.126-.152h.001c.76-.909 1.32-1.995 1.399-3.316.043-.721-.077-1.473-.22-1.894a4.46 4.46 0 0 0-.644-1.24v-.002h-.002a4.388 4.388 0 0 0-6.728-.312zM2 12.5v-2h1.5v2h2V14h-2v2H2v-2H0v-1.5h2z"></path></svg>