<svg xmlns="http://www.w3.org/2000/svg" viewBox="0 0 16 16"><path d="M8 0a8 8 0 1 0 0 16A8 8 0 0 0 8 0zM1.5 8a6.5 6.5 0 1 1 11.395 4.277 3.504 3.504 0 0 0-1.163-1.088l-1.523-.88a.285.285 0 0 1-.076-.428l.086-.104v-.001c.549-.654.962-1.449 1.02-2.422.03-.526-.055-1.074-.165-1.395a3.23 3.23 0 0 0-.671-1.154 3.259 3.259 0 0 0-4.806 0 3.23 3.23 0 0 0-.672 1.154c-.109.32-.195.87-.163 1.395.057.973.47 1.768 1.018 2.422l.087.105a.285.285 0 0 1-.076.428l-1.523.88a3.506 3.506 0 0 0-1.163 1.088A6.475 6.475 0 0 1 1.5 8zm2.74 5.302c.173-.334.44-.62.778-.814l1.523-.88A1.784 1.784 0 0 0 7.02 8.92l-.088-.105-.002-.002c-.399-.476-.637-.975-.671-1.548a2.71 2.71 0 0 1 .087-.824 1.74 1.74 0 0 1 .357-.623 1.76 1.76 0 0 1 2.594 0c.155.17.274.378.357.623a2.716 2.716 0 0 1 .087.824c-.034.573-.272 1.072-.671 1.548l-.002.002-.088.105c-.709.85-.48 2.135.479 2.688l1.523.88c.338.195.605.48.779.814A6.47 6.47 0 0 1 8 14.5a6.47 6.47 0 0 1-3.76-1.198z"></path></svg>