<svg xmlns="http://www.w3.org/2000/svg" version="1.1" viewBox="234.5 88.03 536.25 587.58"><path d="M 337.547 90.288 C 336.027 92.608, 335.889 97.478, 336.078 142.174 C 336.222 176.348, 335.940 192.745, 335.158 195.553 C 333.743 200.634, 327.982 207.459, 322.932 210.034 C 312.305 215.456, 298.004 209.016, 295.105 197.503 C 294.235 194.047, 293.929 180.103, 294.022 148.094 C 294.093 123.567, 294.117 102.705, 294.076 101.734 C 294.034 100.749, 292.481 99.243, 290.567 98.330 C 287.136 96.694, 287.127 96.696, 279.914 100.982 C 262.414 111.378, 245.076 133.554, 238.986 153.329 C 234.395 168.235, 234.500 162.867, 234.500 383 L 234.500 591.500 236.694 601.365 C 243.021 629.821, 262.380 653.687, 290.601 667.822 C 304.340 674.704, 307.457 675.297, 330.500 675.403 C 361.050 675.544, 347.730 681.535, 455.500 619.179 C 462.650 615.042, 474.125 608.418, 481 604.460 C 487.875 600.501, 502.950 591.741, 514.500 584.993 C 526.050 578.244, 536.850 571.951, 538.500 571.008 C 542.229 568.876, 569.494 553.175, 591.750 540.342 C 600.962 535.030, 623.125 522.270, 641 511.986 C 730.428 460.535, 726.728 462.772, 736.901 454.016 C 760.759 433.483, 772.515 405.689, 770.536 374.500 C 769.028 350.735, 761.647 333.386, 745.870 316.520 C 739.779 310.009, 729.208 301.628, 723.300 298.626 C 719.539 296.716, 715.420 296.511, 714.387 298.184 C 713.984 298.835, 713.524 324.468, 713.364 355.146 L 713.072 410.925 710.629 414.795 C 700.785 430.390, 682.037 430.935, 672.740 415.898 L 669.933 411.357 669.716 341.259 L 669.500 271.161 667.166 268.676 C 663.599 264.880, 626.697 242.948, 623.475 242.709 C 621.222 242.543, 620.493 243.013, 619.920 245 C 619.524 246.375, 619.155 272.070, 619.100 302.100 L 619 356.699 616.250 360.771 C 610.730 368.945, 601.119 373.995, 593.723 372.608 C 589.167 371.753, 582.912 367.545, 580.102 363.445 C 575.013 356.017, 575.091 357.251, 575.044 283.340 L 575 214.181 568.250 209.755 C 552.288 199.290, 530.017 186.859, 527.794 187.175 C 525.566 187.491, 525.477 187.918, 524.694 202 C 524.250 209.975, 524.079 262.625, 524.312 319 C 524.545 375.375, 524.362 425.550, 523.905 430.500 C 522.324 447.636, 513.744 463.479, 497.073 480.045 C 484.567 492.472, 458.098 508.538, 442.500 513.169 C 438.650 514.313, 433.025 516.051, 430 517.033 C 426.975 518.015, 418.650 519.359, 411.500 520.021 C 400.582 521.032, 396.145 520.976, 383.797 519.670 C 366.776 517.871, 358.977 515.178, 349.361 507.777 C 337.836 498.908, 332.131 491.138, 327.864 478.500 C 324.525 468.610, 324.569 451.496, 327.959 442 C 330.841 433.925, 335.309 424.899, 339.344 419 C 345.515 409.976, 360.226 395.880, 370.725 388.929 C 382.115 381.387, 400.850 372.040, 408.500 370.081 C 411.250 369.377, 415.300 368.129, 417.500 367.307 C 422.039 365.613, 442.525 363.861, 454.500 364.144 C 458.900 364.248, 466.550 364.371, 471.500 364.417 L 480.500 364.500 481.305 339.500 C 481.749 325.750, 481.918 280.415, 481.683 238.756 C 481.330 176.387, 481.011 162.714, 479.877 161.328 C 476.420 157.102, 437.961 134, 434.383 134 C 433.190 134, 431.841 134.787, 431.385 135.750 C 430.928 136.713, 430.410 161.800, 430.233 191.500 C 430.055 221.200, 429.486 247.075, 428.967 249 C 424.749 264.661, 405.990 270.390, 394.153 259.633 C 392.862 258.460, 390.837 255.700, 389.653 253.500 C 387.525 249.547, 387.500 248.871, 387.500 195.500 C 387.500 165.800, 387.387 133.893, 387.250 124.595 L 387 107.690 383.217 104.095 C 375.590 96.848, 357.880 89.364, 345.862 88.311 C 339.546 87.757, 339.142 87.853, 337.547 90.288" stroke="none" fill="#dab3f1" fill-rule="evenodd"/></svg>